<?xml version="1.0" encoding="UTF-8"?>
<svg xmlns="http://www.w3.org/2000/svg" version="1.1" xmlns:xlink="http://www.w3.org/1999/xlink" viewBox="0 0 512 512">
  <defs>
    <style>
      .cls-1, .cls-2 {
        isolation: isolate;
      }

      .cls-2 {
        fill: #fff;
        mix-blend-mode: screen;
      }

      .cls-3 {
        fill: url(#linear-gradient);
      }
    </style>
    <linearGradient id="linear-gradient" x1="-117.94" y1="914.39" x2="-51.03" y2="797.91" gradientTransform="translate(540.15 3105.45) scale(3.32 -3.32)" gradientUnits="userSpaceOnUse">
      <stop offset="0" stop-color="#927be5"/>
      <stop offset="1" stop-color="#512bd4"/>
    </linearGradient>
  </defs>
  <!-- Generator: Adobe Illustrator 28.6.0, SVG Export Plug-In . SVG Version: 1.2.0 Build 709)  -->
  <g class="cls-1">
    <g id="Layer_1">
      <path id="path12" class="cls-3" d="M25.98,160.94v190.14c0,23.52,12.55,45.28,32.93,57.03l164.66,95.08c20.38,11.77,45.49,11.77,65.86,0l164.66-95.08c20.38-11.76,32.93-33.5,32.93-57.03v-190.13c0-23.53-12.55-45.28-32.93-57.04L289.44,8.85c-20.38-11.77-45.49-11.77-65.86,0L58.91,103.9c-20.38,11.76-32.93,33.51-32.93,57.04h0Z"/>
      <path id="path13" class="cls-2" d="M141.24,223.07v65.87c-.02,9.08,7.33,16.45,16.41,16.47h.06c9.09,0,16.46-7.36,16.47-16.45v-.02c0-9.09,7.37-16.47,16.47-16.47s16.47,7.37,16.47,16.47c0,27.28-22.12,49.4-49.4,49.4s-49.4-22.12-49.4-49.4v-65.86c0-27.28,22.12-49.4,49.4-49.4s49.4,22.12,49.4,49.4c0,9.09-7.37,16.47-16.47,16.47s-16.47-7.37-16.47-16.47h0c0-9.09-7.37-16.47-16.47-16.47s-16.47,7.37-16.47,16.47h0ZM404.7,288.94c.01,9.09-7.35,16.46-16.43,16.47h-16.51v16.46c0,4.37-1.73,8.56-4.82,11.65-6.4,6.43-16.81,6.45-23.24.05-.02-.01-.03-.03-.05-.05-3.08-3.09-4.82-7.28-4.82-11.65v-16.46h-32.93v16.46c.02,9.07-7.32,16.45-16.39,16.47-.03,0-.05,0-.08,0-9.07.02-16.44-7.33-16.46-16.4,0-.02,0-.04,0-.07v-16.46h-16.48c-9.09,0-16.47-7.37-16.47-16.47s7.37-16.47,16.47-16.47h16.47v-32.93h-16.47c-9.09,0-16.47-7.37-16.47-16.47s7.37-16.47,16.47-16.47h16.47v-16.47c0-9.09,7.37-16.47,16.47-16.47s16.47,7.37,16.47,16.47v16.46h32.93v-16.46c0-9.09,7.37-16.47,16.47-16.47s16.47,7.37,16.47,16.47v16.46h16.47c4.36,0,8.55,1.73,11.64,4.82,6.43,6.4,6.45,16.81.05,23.24-.01.02-.03.03-.05.05-3.08,3.09-7.27,4.83-11.64,4.83h-16.47v32.93h16.47c9.08.02,16.44,7.38,16.47,16.46h0ZM338.83,239.55h-32.93v32.93h32.93v-32.93Z"/>
    </g>
  </g>
</svg>