<?xml version="1.0" encoding="utf-8"?>
<!-- Generator: Adobe Illustrator 24.1.1, SVG Export Plug-In . SVG Version: 6.00 Build 0)  -->
<svg version="1.1" id="Layer_1" xmlns="http://www.w3.org/2000/svg" xmlns:xlink="http://www.w3.org/1999/xlink" x="0px" y="0px"
	 viewBox="0 0 512 512" style="enable-background:new 0 0 512 512;" xml:space="preserve">
<style type="text/css">
	.st0{fill-rule:evenodd;clip-rule:evenodd;}
</style>
<g>
	<path d="M109.7,0h182.9v36.6H109.7c-20.2,0-36.6,16.4-36.6,36.6v365.7c0,20.2,16.4,36.6,36.6,36.6h292.6
		c20.2,0,36.6-16.4,36.6-36.6v-256h36.6v256c0,40.4-32.7,73.1-73.1,73.1H109.7c-40.4,0-73.1-32.7-73.1-73.1V73.1
		C36.6,32.7,69.3,0,109.7,0z"/>
	<path d="M292.6,128V0l182.9,182.9h-128C317.1,182.9,292.6,158.3,292.6,128z"/>
	<path class="st0" d="M146.3,384c0-10.1,8.2-18.3,18.3-18.3h73.1c10.1,0,18.3,8.2,18.3,18.3s-8.2,18.3-18.3,18.3h-73.1
		C154.5,402.3,146.3,394.1,146.3,384z M146.3,310.9c0-10.1,8.2-18.3,18.3-18.3h182.9c10.1,0,18.3,8.2,18.3,18.3s-8.2,18.3-18.3,18.3
		H164.6C154.5,329.1,146.3,321,146.3,310.9z M146.3,237.7c0-10.1,8.2-18.3,18.3-18.3h182.9c10.1,0,18.3,8.2,18.3,18.3
		c0,10.1-8.2,18.3-18.3,18.3H164.6C154.5,256,146.3,247.8,146.3,237.7z"/>
</g>
</svg>
