<?xml version="1.0" encoding="utf-8"?>
<!-- Generator: Adobe Illustrator 24.1.1, SVG Export Plug-In . SVG Version: 6.00 Build 0)  -->
<svg version="1.1" id="Layer_1" xmlns="http://www.w3.org/2000/svg" xmlns:xlink="http://www.w3.org/1999/xlink" x="0px" y="0px"
	 viewBox="0 0 512 512" style="enable-background:new 0 0 512 512;" xml:space="preserve">
<g>
	<path d="M438.95,108.82L235.78,311.97c6.04,8.63,11.14,17.96,15.27,27.81l50.7,122.07L438.95,108.8V108.82z M200.03,276.23
		l203.2-203.2L50.15,210.24l122.07,50.72C182.02,265.03,191.35,270.14,200.03,276.23z M508.38,67.56L348.42,479.09
		c-10.08,26.02-39.19,39.37-65,29.83c-12.7-4.69-22.86-14.46-28.04-26.98l-50.7-122.05c-9.85-23.79-28.77-42.69-52.54-52.56
		l-122.1-50.7C4.72,246.11-6.84,216.82,4.25,191.19c5.49-12.65,15.81-22.57,28.67-27.6L444.44,3.57
		c25.17-10.13,53.81,2.05,63.97,27.24c4.74,11.77,4.74,24.93,0,36.73L508.38,67.56z"/>
</g>
</svg>
