<?xml version="1.0" encoding="utf-8"?>
<!-- Generator: Adobe Illustrator 26.3.1, SVG Export Plug-In . SVG Version: 6.00 Build 0)  -->
<svg version="1.1" id="Layer_1" xmlns="http://www.w3.org/2000/svg" xmlns:xlink="http://www.w3.org/1999/xlink" x="0px" y="0px"
	 viewBox="0 0 512 512" style="enable-background:new 0 0 512 512;" xml:space="preserve">
<style type="text/css">
	.st0{fill-rule:evenodd;clip-rule:evenodd;}
</style>
<g>
	<path class="st0" d="M399.68,88.26c23.49,13.05,53.51,5.33,67.06-17.31c13.55-22.63,5.53-51.55-17.96-64.61
		c-23.49-13.05-53.51-5.3-67.08,17.34C368.17,46.27,376.22,75.2,399.68,88.26 M299.2,394.2c-21.6,0-42.08-4.63-60.41-12.85
		l-34.14,58.91c28.51,13.59,60.6,21.28,94.55,21.28c19.74,0,38.84-2.64,56.99-7.48c3.19-19.03,14.9-36.51,33.55-46.9
		c18.68-10.4,40.22-11.4,58.9-4.61c36.29-34.4,59.91-81.2,63.36-133.3l-69.98-1C435.59,338.86,374.12,394.2,299.2,394.2
		 M299.2,117.8c74.92,0,136.4,55.35,142.83,125.95l69.98-1c-3.45-52.11-27.07-98.91-63.39-133.33c-18.65,6.81-40.22,5.76-58.87-4.58
		c-18.65-10.4-30.37-27.9-33.58-46.93c-18.15-4.81-37.22-7.45-56.99-7.45c-33.93,0-66.02,7.68-94.53,21.28l34.14,58.9
		C257.12,122.41,277.6,117.8,299.2,117.8 M155.76,255.99c0-46.74,24.12-88.06,61-113.08l-35.92-57.93
		c-42.96,27.68-74.92,69.96-88.2,119.48c15.51,12.19,25.43,30.74,25.43,51.53s-9.91,39.35-25.43,51.54
		c13.28,49.54,45.24,91.83,88.2,119.5l35.92-57.96C179.88,344.05,155.76,302.76,155.76,255.99 M399.7,423.73
		c-23.49,13.05-31.53,41.99-17.99,64.61c13.55,22.63,43.57,30.39,67.06,17.3c23.49-13.05,31.54-41.98,17.96-64.61
		C453.18,418.43,423.16,410.66,399.7,423.73 M49.12,208.69C22,208.69,0,229.85,0,255.99s22,47.31,49.12,47.31
		c27.13,0,49.1-21.18,49.1-47.31S76.25,208.69,49.12,208.69"/>
</g>
</svg>
